<?xml version="1.0" encoding="UTF-8"?>
<svg version="1.1" xmlns="http://www.w3.org/2000/svg" width="500" height="500">
<path d="M0 0 C1.04056801 -0.00006042 1.04056801 -0.00006042 2.10215759 -0.00012207 C3.56209421 0.00521782 5.02203157 0.02273556 6.48168945 0.05175781 C8.71199585 0.09369645 10.93928669 0.09281687 13.16992188 0.0859375 C25.26537861 0.17514067 25.26537861 0.17514067 28.65234375 3.59375 C30.35534966 8.83234427 30.07053691 14.73161856 30.37109375 20.1953125 C30.51608706 23.5798235 30.51608706 23.5798235 31.65234375 26.59375 C35.04389044 27.98830045 38.43553212 29.14341743 41.92578125 30.25585938 C44.08984375 30.99609375 44.08984375 30.99609375 47.65234375 32.59375 C48.53076172 34.45263672 48.53076172 34.45263672 48.65234375 36.59375 C47.68017578 38.50073242 47.68017578 38.50073242 46.16015625 40.44921875 C45.62003906 41.15369141 45.07992187 41.85816406 44.5234375 42.58398438 C43.94722656 43.30908203 43.37101563 44.03417969 42.77734375 44.78125 C41.92462891 45.88629883 41.92462891 45.88629883 41.0546875 47.01367188 C37.00712691 52.23896684 37.00712691 52.23896684 35.65234375 53.59375 C30.99031327 53.08990323 26.51820988 52.12596172 21.96484375 51.03125 C4.30301445 47.24524013 -12.19265497 51.01760614 -27.34765625 60.59375 C-30.99406534 63.34033463 -34.19662026 66.29728158 -37.34765625 69.59375 C-37.89421875 70.109375 -38.44078125 70.625 -39.00390625 71.15625 C-42.79475846 75.02775864 -45.14739528 79.68881394 -47.59765625 84.46875 C-47.93941895 85.12883057 -48.28118164 85.78891113 -48.63330078 86.46899414 C-55.58489358 100.59905035 -55.79433552 119.2173681 -50.75512695 134.01757812 C-44.85562405 149.37817254 -33.68517052 162.60076025 -18.51660156 169.41650391 C-3.68393866 175.40735866 11.37208335 176.58715463 26.85546875 172.34765625 C29.77222055 171.56143684 32.66766499 171.04851614 35.65234375 170.59375 C37.83475203 173.33158297 39.99535844 176.08585818 42.15234375 178.84375 C42.77238281 179.62105469 43.39242187 180.39835938 44.03125 181.19921875 C44.61777344 181.95332031 45.20429688 182.70742188 45.80859375 183.484375 C46.35322266 184.17563477 46.89785156 184.86689453 47.45898438 185.57910156 C48.65234375 187.59375 48.65234375 187.59375 48.65234375 191.59375 C46.02880857 192.59774524 43.4036658 193.59709445 40.77734375 194.59375 C40.03097656 194.87992188 39.28460938 195.16609375 38.515625 195.4609375 C32.87890625 197.59375 32.87890625 197.59375 30.65234375 197.59375 C30.57886719 199.43839844 30.57886719 199.43839844 30.50390625 201.3203125 C30.42883346 202.95314566 30.3532876 204.58595712 30.27734375 206.21875 C30.24640625 207.02699219 30.21546875 207.83523438 30.18359375 208.66796875 C29.65054087 219.59555288 29.65054087 219.59555288 25.65234375 223.59375 C23.11838034 223.81787788 20.69672924 223.92185562 18.16015625 223.9296875 C17.04663284 223.9396727 17.04663284 223.9396727 15.91061401 223.94985962 C14.33870931 223.95999162 12.76676154 223.96467647 11.19482422 223.96435547 C8.79322014 223.96872114 6.39346524 224.00500973 3.9921875 224.04296875 C2.46485003 224.04883842 0.93750384 224.05280681 -0.58984375 224.0546875 C-1.306633 224.06905853 -2.02342224 224.08342957 -2.76193237 224.09823608 C-6.08679088 224.06787957 -8.0386926 223.80887157 -10.79443359 221.89013672 C-12.62857594 219.17841982 -12.88137193 217.64397569 -12.95703125 214.390625 C-13.00537109 212.92109375 -13.00537109 212.92109375 -13.0546875 211.421875 C-13.06886719 210.40609375 -13.08304687 209.3903125 -13.09765625 208.34375 C-13.12730469 207.3125 -13.15695313 206.28125 -13.1875 205.21875 C-13.25810403 202.67700505 -13.31084634 200.13617217 -13.34765625 197.59375 C-13.91830811 197.48708008 -14.48895996 197.38041016 -15.0769043 197.27050781 C-21.45767767 195.9817311 -26.65471538 193.6488542 -32.4296875 190.640625 C-35.17577834 189.34964962 -35.17577834 189.34964962 -37.3828125 190.10546875 C-40.06849964 192.13975662 -42.51360142 194.3529574 -44.97265625 196.65625 C-51.19523979 202.47011156 -51.19523979 202.47011156 -55.63134766 202.94604492 C-60.28009565 202.50535754 -61.56305751 201.24393275 -64.80859375 197.95703125 C-65.28463043 197.48057663 -65.76066711 197.00412201 -66.25112915 196.51322937 C-67.24924491 195.50676569 -68.23885118 194.4917989 -69.22021484 193.46899414 C-70.72013736 191.90886999 -72.24740952 190.38022996 -73.78125 188.85351562 C-82.05246734 180.45080976 -82.05246734 180.45080976 -82.34765625 175.59375 C-80.31370844 171.10731638 -76.86004137 167.48485897 -73.66015625 163.78125 C-72.89348633 162.8850293 -72.89348633 162.8850293 -72.11132812 161.97070312 C-70.86003806 160.50891567 -69.60429652 159.05094067 -68.34765625 157.59375 C-68.59 157.00360107 -68.83234375 156.41345215 -69.08203125 155.80541992 C-70.17597956 153.13287264 -71.26189664 150.4571339 -72.34765625 147.78125 C-72.72921875 146.85248047 -73.11078125 145.92371094 -73.50390625 144.96679688 C-73.86484375 144.07412109 -74.22578125 143.18144531 -74.59765625 142.26171875 C-75.10039063 141.02844849 -75.10039063 141.02844849 -75.61328125 139.77026367 C-76.34765625 137.59375 -76.34765625 137.59375 -76.34765625 134.59375 C-77.02868408 134.54887451 -77.70971191 134.50399902 -78.41137695 134.45776367 C-81.4954726 134.24650983 -84.57762187 134.0141363 -87.66015625 133.78125 C-89.26793945 133.67586914 -89.26793945 133.67586914 -90.90820312 133.56835938 C-91.93623047 133.48779297 -92.96425781 133.40722656 -94.0234375 133.32421875 C-94.97130127 133.25614014 -95.91916504 133.18806152 -96.89575195 133.11791992 C-99.34765625 132.59375 -99.34765625 132.59375 -101.15332031 131.53833008 C-103.04216748 128.46296874 -102.79513527 125.2533745 -102.78125 121.75 C-102.78649185 120.98449829 -102.7917337 120.21899658 -102.7971344 119.43029785 C-102.80355307 117.81308199 -102.80221955 116.19581944 -102.79370117 114.57861328 C-102.78518581 112.10234653 -102.81395903 109.62838281 -102.84570312 107.15234375 C-102.84731511 105.58072986 -102.84673766 104.00911188 -102.84375 102.4375 C-102.85498398 101.69681274 -102.86621796 100.95612549 -102.87779236 100.19299316 C-102.83437761 96.99591525 -102.78996911 95.0939661 -100.62817383 92.64916992 C-98.09674698 91.47762959 -96.14145171 91.08350208 -93.36328125 90.86328125 C-92.42871094 90.78271484 -91.49414062 90.70214844 -90.53125 90.61914062 C-89.56316406 90.54888672 -88.59507813 90.47863281 -87.59765625 90.40625 C-86.61410156 90.32439453 -85.63054687 90.24253906 -84.6171875 90.15820312 C-82.19470702 89.95828969 -79.77191255 89.77058483 -77.34765625 89.59375 C-76.94933594 88.58054687 -76.55101563 87.56734375 -76.140625 86.5234375 C-75.60560946 85.17181929 -75.07044529 83.82025991 -74.53515625 82.46875 C-74.27412109 81.80359375 -74.01308594 81.1384375 -73.74414062 80.453125 C-72.48077829 77.27132356 -71.20899714 74.3473109 -69.5234375 71.3515625 C-68.08285952 68.75019725 -68.08285952 68.75019725 -68.8828125 66.52734375 C-70.72321514 64.09801227 -72.69921797 61.87919572 -74.78515625 59.65625 C-82.28758819 51.65942386 -82.28758819 51.65942386 -82.41796875 47.17578125 C-80.84004701 43.36918901 -78.19862011 41.06585203 -75.22265625 38.28125 C-74.03183214 37.13490929 -72.84301604 35.98647887 -71.65625 34.8359375 C-71.08374512 34.28260742 -70.51124023 33.72927734 -69.92138672 33.15917969 C-67.36771012 30.61897268 -65.07309263 27.88228791 -62.8125 25.08203125 C-61.03597794 23.27708484 -59.76166283 22.39841886 -57.34765625 21.59375 C-52.21810633 21.7715744 -49.8483684 23.45669654 -46.22265625 26.96875 C-42.07481056 31.1585341 -42.07481056 31.1585341 -37.34765625 34.59375 C-33.40475968 34.32830048 -30.00903466 32.7171535 -26.41015625 31.15625 C-22.43422469 29.43762152 -18.47356556 27.91576267 -14.34765625 26.59375 C-14.31325439 25.98378174 -14.27885254 25.37381348 -14.2434082 24.74536133 C-14.07293407 21.96359344 -13.86691107 19.18554714 -13.66015625 16.40625 C-13.60666016 15.44654297 -13.55316406 14.48683594 -13.49804688 13.49804688 C-13.42392578 12.56669922 -13.34980469 11.63535156 -13.2734375 10.67578125 C-13.18703003 9.39537964 -13.18703003 9.39537964 -13.09887695 8.08911133 C-11.05393148 1.29633015 -6.54347531 -0.03599136 0 0 Z " fill="#5270FB" transform="translate(121.34765625,106.40625)"/>
<path d="M0 0 C0.78722621 19.01905023 1.14316122 37.96396233 1 57 C1.44730469 56.22011719 1.89460938 55.44023437 2.35546875 54.63671875 C5.54206448 49.52756883 9.3771996 47.6732912 15 46 C23.77663023 44.02772354 31.97294293 43.86598956 40.875 44.6875 C41.7419751 44.76516602 42.6089502 44.84283203 43.50219727 44.92285156 C49.31262194 45.55196689 54.53756248 46.93360107 60 49 C59.74309819 46.93571843 59.46886954 44.87358906 59.1875 42.8125 C58.96126953 41.08966797 58.96126953 41.08966797 58.73046875 39.33203125 C57.94228793 35.73674656 57.43444467 33.7692406 55 31 C49.08578533 27.94725229 43.03611021 27.5542188 36.5 27.6875 C35.31470703 27.68266602 35.31470703 27.68266602 34.10546875 27.67773438 C24.2766781 27.65292631 24.2766781 27.65292631 16 32 C15.67 33.32 15.34 34.64 15 36 C11.37 36 7.74 36 4 36 C4.11877002 28.16117873 4.11877002 28.16117873 6.4140625 25.13671875 C14.94862798 17.56088199 25.56345388 17.8194842 36.375 17.8125 C37.365 17.80025391 38.355 17.78800781 39.375 17.77539062 C48.54853967 17.75723718 58.00661442 18.41799004 65 25 C70.20948699 32.85947417 71.15352011 40.04745028 71.09765625 49.23828125 C71.09553383 50.55943184 71.09553383 50.55943184 71.09336853 51.90727234 C71.08778937 54.70905003 71.07524071 57.51074662 71.0625 60.3125 C71.05748231 62.21679572 71.05291987 64.12109269 71.04882812 66.02539062 C71.03782677 70.68362481 71.02057649 75.34179867 71 80 C69.741875 80.185625 68.48375 80.37125 67.1875 80.5625 C66.12595703 80.71912109 66.12595703 80.71912109 65.04296875 80.87890625 C63 81 63 81 60 80 C59.3125 77.9375 59.3125 77.9375 59 76 C58.21625 76.61875 57.4325 77.2375 56.625 77.875 C44.77095242 85.59518803 26.63733196 82.4644737 13.48828125 80.046875 C8.0451925 78.41333885 4.08536583 75.79945796 1 71 C0.67 73.97 0.34 76.94 0 80 C-4.19895255 81.04973814 -6.79405774 80.72795155 -11 80 C-11.33 78.35 -11.66 76.7 -12 75 C-12.7425 75.598125 -13.485 76.19625 -14.25 76.8125 C-25.65988176 84.32111071 -41.04205636 82.74191379 -53.83203125 80.68359375 C-60.59765438 79.2236874 -65.48888256 76.54493329 -69.74609375 71.01171875 C-75.65734225 61.52794 -75.28323635 48.55063707 -73.4609375 37.828125 C-71.75664536 31.64772495 -69.2563211 26.76581652 -64.125 22.75 C-51.56506396 15.71643582 -32.53086657 16.0462787 -18.8125 19.375 C-15.6539973 20.29064207 -13.77760695 21.14826203 -11 23 C-11 15.41 -11 7.82 -11 0 C-6.80104745 -1.04973814 -4.20594226 -0.72795155 0 0 Z M-58.5625 31.1875 C-63.42812414 36.8016817 -63.34072849 43.32956525 -63.3125 50.4375 C-63.32861328 51.24509766 -63.34472656 52.05269531 -63.36132812 52.88476562 C-63.36591688 58.5794155 -62.44654465 62.8344417 -60 68 C-51.63312647 75.12696487 -38.32990012 73.44699045 -28 73 C-21.59717766 72.40871034 -17.37163771 70.69151363 -13 66 C-10.74413492 60.88567573 -10.66593297 56.11165134 -10.6875 50.625 C-10.67138672 49.81289062 -10.65527344 49.00078125 -10.63867188 48.1640625 C-10.63338861 41.57054268 -11.57574933 35.70945664 -16.125 30.625 C-26.58182733 24.71461934 -48.61042761 23.93227217 -58.5625 31.1875 Z M12 58 C10.91002313 61.67867193 10.77772011 64.09067318 11.6875 67.8125 C13.27284704 70.45474506 14.08214035 71.05366714 17 72 C22.96778304 73.07718877 28.82017498 73.18339225 34.875 73.1875 C35.81730469 73.19974609 36.75960937 73.21199219 37.73046875 73.22460938 C44.90138035 73.23948678 51.69102281 72.82331396 58.0625 69.3125 C60.28487232 67.03770341 60.28487232 67.03770341 60.6875 63.5 C60.32711045 59.8199162 60.32711045 59.8199162 57.375 57.625 C50.3296365 54.23278795 42.73093219 54.78177814 35.05957031 54.75976562 C33.00545254 54.75002585 30.9523227 54.71893201 28.8984375 54.6875 C27.59132813 54.68234375 26.28421875 54.6771875 24.9375 54.671875 C23.75027344 54.6625293 22.56304687 54.65318359 21.33984375 54.64355469 C17.57221791 55.04565511 15.18027407 55.95503179 12 58 Z M0 66 C1 69 1 69 1 69 Z " fill="#A5A5A5" transform="translate(279,168)"/>
<path d="M0 0 C3.63 0 7.26 0 11 0 C11.495 7.92 11.495 7.92 12 16 C30.315 16.495 30.315 16.495 49 17 C49 19.64 49 22.28 49 25 C48 26 48 26 44.48999023 26.11352539 C42.92951578 26.11336626 41.36903607 26.10767142 39.80859375 26.09765625 C38.98875504 26.0962413 38.16891632 26.09482635 37.32423401 26.09336853 C34.69528618 26.08775289 32.06642227 26.07519779 29.4375 26.0625 C27.65950643 26.05748701 25.88151154 26.05292376 24.10351562 26.04882812 C19.73564455 26.03777839 15.36783652 26.02050331 11 26 C11.09364965 31.05403538 11.19976907 36.10759821 11.31738281 41.16113281 C11.35563327 42.87981011 11.39049303 44.59856638 11.421875 46.31738281 C11.46761128 48.7900004 11.52559084 51.26207613 11.5859375 53.734375 C11.59748871 54.50118591 11.60903992 55.26799683 11.62094116 56.05804443 C11.75461827 61.34209548 11.75461827 61.34209548 14 66 C17.37261284 67.68630642 21.16958963 67.14239629 24.875 67.125 C25.69097656 67.12886719 26.50695312 67.13273437 27.34765625 67.13671875 C28.13785156 67.13542969 28.92804688 67.13414062 29.7421875 67.1328125 C30.82282471 67.13112061 30.82282471 67.13112061 31.92529297 67.12939453 C34.34973965 67.04125307 34.34973965 67.04125307 38 66 C39.485 58.08 39.485 58.08 41 50 C44 49 44 49 47.75 50.3125 C49.85406544 50.98980261 49.85406544 50.98980261 52 51 C54.0925227 49.73485552 55.621306 48.25366064 57.35546875 46.53515625 C63.44510525 40.8505312 74.89157459 41.80495543 82.75 41.8125 C84.06291016 41.8137085 84.06291016 41.8137085 85.40234375 41.81494141 C93.46738527 41.89088622 101.78988709 42.02776187 109 46 C109.38237079 39.88206735 109.18710816 34.39649787 106 29 C100.38705772 24.42102077 93.64849265 24.81789788 86.75 24.8125 C85.53763672 24.79413086 85.53763672 24.79413086 84.30078125 24.77539062 C78.73379142 24.76202985 73.30085975 25.17738535 68 27 C65.62841973 29.0285831 65.62841973 29.0285831 65 33 C61.37 33 57.74 33 54 33 C54.36324168 24.88760251 54.36324168 24.88760251 57.0625 21.125 C65.82878193 14.78343435 75.91768803 14.81925537 86.375 14.8125 C87.365 14.80025391 88.355 14.78800781 89.375 14.77539062 C97.88985165 14.75854065 107.19940731 15.25087052 114 21 C119.81535567 28.08023409 121.27716817 35.72683423 121.44921875 44.63671875 C121.47095657 45.43858109 121.4926944 46.24044342 121.51509094 47.06660461 C121.55874605 48.7497813 121.5980031 50.43307729 121.63305664 52.11645508 C121.68756718 54.69067231 121.75776049 57.26411831 121.83007812 59.83789062 C121.87071594 61.47914404 121.91046062 63.12041987 121.94921875 64.76171875 C121.96997971 65.52844406 121.99074066 66.29516937 122.01213074 67.08512878 C122.14684324 74.17456693 122.14684324 74.17456693 121 77 C118.47946405 78.26026798 117.1457902 77.91874445 114.375 77.5625 C113.55773437 77.46066406 112.74046875 77.35882813 111.8984375 77.25390625 C110.95871094 77.12822266 110.95871094 77.12822266 110 77 C109.67 75.68 109.34 74.36 109 73 C108.21625 73.61875 107.4325 74.2375 106.625 74.875 C95.71891952 81.99424698 78.28115613 79.6801883 66.0703125 77.69140625 C60.47743128 76.43194063 56.56583936 74.60598909 52.5625 70.5 C51.12294579 68.19671326 50.5678269 66.60208056 50 64 C49.62488281 64.61488281 49.24976563 65.22976562 48.86328125 65.86328125 C45.63053826 70.96889802 43.19063284 74.7533701 37.15917969 76.54760742 C32.91298804 77.43727195 28.57287044 77.26984009 24.25 77.3125 C23.28578125 77.34150391 22.3215625 77.37050781 21.328125 77.40039062 C15.07374306 77.45562634 10.15251976 76.7433376 5 73 C0.19196087 67.08241338 -0.15521166 62.13038513 -0.31640625 54.734375 C-0.33718735 53.94097717 -0.35796844 53.14757935 -0.37937927 52.33013916 C-0.44459973 49.80351156 -0.50363144 47.27678279 -0.5625 44.75 C-0.6057114 43.03384384 -0.64932653 41.31769778 -0.69335938 39.6015625 C-0.80025283 35.40114454 -0.90159729 31.20062511 -1 27 C-4.63 26.67 -8.26 26.34 -12 26 C-12 23.03 -12 20.06 -12 17 C-9.72135417 16.77213542 -7.44270833 16.54427083 -5.1640625 16.31640625 C-2.95727195 16.10909886 -2.95727195 16.10909886 -1 15 C-1.01160156 14.08476562 -1.02320313 13.16953125 -1.03515625 12.2265625 C-1.04417969 11.03804687 -1.05320312 9.84953125 -1.0625 8.625 C-1.07410156 7.44164062 -1.08570313 6.25828125 -1.09765625 5.0390625 C-1 2 -1 2 0 0 Z M63 54 C61.19797055 56.94877547 60.98022779 58.67046319 61.1875 62.125 C62.05170654 65.18296161 62.60451229 66.03796185 65 68 C71.18799047 70.35687409 77.90803455 70.30731791 84.4375 70.25 C85.31470703 70.25773437 86.19191406 70.26546875 87.09570312 70.2734375 C94.340035 70.25208354 101.66359707 69.80165758 108.125 66.3125 C110.27876716 64.02511744 110.27876716 64.02511744 110.6875 60.5 C110.32711045 56.8199162 110.32711045 56.8199162 107.375 54.625 C100.29891818 51.21799764 92.7051406 51.81377934 85.00463867 51.81469727 C82.93973422 51.81250237 80.87535769 51.79428432 78.81054688 51.77539062 C76.84504883 51.77249023 76.84504883 51.77249023 74.83984375 51.76953125 C73.64738037 51.76542236 72.45491699 51.76131348 71.22631836 51.75708008 C68.02172337 51.99836438 65.83851141 52.51893981 63 54 Z " fill="#A5A5A5" transform="translate(360,171)"/>
<path d="M0 0 C1.16163666 -0.00570007 2.32327332 -0.01140015 3.52011108 -0.01727295 C5.97612605 -0.02670356 8.43215356 -0.03324921 10.88818359 -0.03710938 C14.61448728 -0.04678683 18.3402325 -0.07781815 22.06640625 -0.109375 C24.46093425 -0.11590872 26.85546617 -0.12115774 29.25 -0.125 C30.9006395 -0.1435202 30.9006395 -0.1435202 32.58462524 -0.16241455 C42.16315755 -0.13531725 52.46163683 0.77559443 60.0234375 7.203125 C66.67630633 14.41039956 67.17789136 22.40942867 67.19140625 31.78515625 C67.19639885 33.00557869 67.19639885 33.00557869 67.20149231 34.25065613 C67.20653574 35.96600788 67.20890144 37.68136936 67.20874023 39.39672852 C67.21092194 41.99707527 67.22909195 44.59699402 67.24804688 47.19726562 C67.25098245 48.8723944 67.25296615 50.54752517 67.25390625 52.22265625 C67.26109177 52.98858597 67.26827728 53.75451569 67.27568054 54.5436554 C67.2422729 62.58702302 66.22628528 69.81105488 61.0234375 76.203125 C55.00063453 82.05862788 46.74567638 84.30632794 38.51147461 84.36425781 C37.40609848 84.37386536 36.30072235 84.3834729 35.16184998 84.39337158 C33.9701973 84.39762146 32.77854462 84.40187134 31.55078125 84.40625 C29.70064171 84.41480011 29.70064171 84.41480011 27.81312561 84.42352295 C25.19972592 84.43297172 22.58631432 84.43950644 19.97290039 84.44335938 C16.00064942 84.44988592 12.02877035 84.48403945 8.05664062 84.515625 C5.51302389 84.52215904 2.96940347 84.52740794 0.42578125 84.53125 C-1.34044334 84.5497702 -1.34044334 84.5497702 -3.14234924 84.56866455 C-14.19652654 84.5392398 -23.98271697 83.0257178 -32.1640625 75.078125 C-37.99671194 65.82633623 -37.44251803 55.46287914 -37.36767578 44.90820312 C-37.35159822 42.20912122 -37.36758013 39.51153633 -37.38671875 36.8125 C-37.41496513 14.67321905 -37.41496513 14.67321905 -29.84765625 6.671875 C-21.26098864 -0.06839018 -10.37382573 0.03962665 0 0 Z M-21.9765625 13.453125 C-26.01324965 19.00356984 -26.2849349 24.39167748 -26.27734375 31.00390625 C-26.28162888 31.83971725 -26.285914 32.67552826 -26.29032898 33.53666687 C-26.29605138 35.29909361 -26.29658801 37.06154395 -26.29223633 38.82397461 C-26.28908446 41.49700003 -26.31253302 44.16890865 -26.33789062 46.84179688 C-26.3401649 48.56249862 -26.34086652 50.28320331 -26.33984375 52.00390625 C-26.3490535 52.79170975 -26.35826324 53.57951324 -26.36775208 54.39118958 C-26.32187675 59.99424629 -25.4171062 65.11292801 -22.9765625 70.203125 C-16.31075732 76.403874 -6.80387131 75.35404262 1.76953125 75.3359375 C3.28535545 75.33737259 3.28535545 75.33737259 4.83180237 75.33883667 C6.9589138 75.33951407 9.08602736 75.33769062 11.21313477 75.33349609 C14.44747622 75.32814726 17.68167847 75.33345324 20.91601562 75.33984375 C22.9921878 75.33918278 25.0683599 75.33790123 27.14453125 75.3359375 C28.10105087 75.33796173 29.0575705 75.33998596 30.04307556 75.34207153 C42.47977257 75.70761635 42.47977257 75.70761635 53.0234375 70.203125 C55.77071651 64.39152659 56.47284376 58.67766562 56.421875 52.328125 C56.42474518 51.51875488 56.42761536 50.70938477 56.43057251 49.87548828 C56.43259814 48.1780527 56.42717439 46.48059297 56.41455078 44.78320312 C56.39847479 42.20909622 56.41445029 39.63655902 56.43359375 37.0625 C56.43161105 35.40103826 56.42776682 33.73957748 56.421875 32.078125 C56.42794769 31.32160645 56.43402039 30.56508789 56.4402771 29.78564453 C56.36993844 24.34791926 55.5976385 19.06235246 53.0234375 14.203125 C46.49516763 8.16911141 36.25509905 8.90251231 27.8984375 8.9375 C26.87089355 8.93558655 25.84334961 8.9336731 24.78466797 8.93170166 C22.62662509 8.9303494 20.46857381 8.93397827 18.31054688 8.94238281 C15.03236385 8.95309583 11.75472875 8.94245447 8.4765625 8.9296875 C6.36718631 8.93100926 4.25781045 8.93357201 2.1484375 8.9375 C1.18147949 8.93345154 0.21452148 8.92940308 -0.78173828 8.92523193 C-12.02801249 8.95389468 -12.02801249 8.95389468 -21.9765625 13.453125 Z " fill="#A5A5A5" transform="translate(130.9765625,173.796875)"/>
<path d="M0 0 C2.76375 -0.04125 5.5275 -0.0825 8.375 -0.125 C9.67896729 -0.15231201 9.67896729 -0.15231201 11.00927734 -0.18017578 C13.00703478 -0.19473738 15.00467217 -0.09956726 17 0 C19 2 19 2 19.0625 5.3125 C19.041875 6.529375 19.02125 7.74625 19 9 C19.20625 9.9075 19.4125 10.815 19.625 11.75 C20 14 20 14 18 17 C16.12060547 17.34057617 16.12060547 17.34057617 13.8671875 17.29296875 C13.06152344 17.28330078 12.25585938 17.27363281 11.42578125 17.26367188 C10.58402344 17.23853516 9.74226563 17.21339844 8.875 17.1875 C7.60076172 17.16719727 7.60076172 17.16719727 6.30078125 17.14648438 C4.20025163 17.11108219 2.10004707 17.05727401 0 17 C0 11.39 0 5.78 0 0 Z M3 3 C3 4.32 3 5.64 3 7 C6.96 7 10.92 7 15 7 C15.33 5.68 15.66 4.36 16 3 C11.71 3 7.42 3 3 3 Z M3 10 C3 11.65 3 13.3 3 15 C6.96 15 10.92 15 15 15 C15.66 13.68 16.32 12.36 17 11 C15.88873341 9.66098208 15.88873341 9.66098208 13.05859375 9.90234375 C11.86363281 9.91394531 10.66867187 9.92554688 9.4375 9.9375 C8.23996094 9.94652344 7.04242188 9.95554687 5.80859375 9.96484375 C4.41833984 9.98224609 4.41833984 9.98224609 3 10 Z " fill="#979797" transform="translate(310,278)"/>
<path d="M0 0 C1.32 0 2.64 0 4 0 C6.97 5.28 9.94 10.56 13 16 C11.68 16.33 10.36 16.66 9 17 C8.67 16.34 8.34 15.68 8 15 C4.95418731 14.53045739 4.95418731 14.53045739 1.4375 14.375 C0.23996094 14.30023438 -0.95757812 14.22546875 -2.19140625 14.1484375 C-3.11824219 14.09945313 -4.04507812 14.05046875 -5 14 C-5.33 14.99 -5.66 15.98 -6 17 C-7.32 16.67 -8.64 16.34 -10 16 C-8.52260269 13.5197633 -7.04317579 11.0407783 -5.5625 8.5625 C-5.14162109 7.85544922 -4.72074219 7.14839844 -4.28710938 6.41992188 C-1.11328125 1.11328125 -1.11328125 1.11328125 0 0 Z M1 4 C-1.25885324 7.25397508 -1.25885324 7.25397508 -2 11 C0.64 11 3.28 11 6 11 C4.31192092 6.76915097 4.31192092 6.76915097 1 4 Z " fill="#9B9B9B" transform="translate(277,278)"/>
<path d="M0 0 C0.66 0.33 1.32 0.66 2 1 C1.67 1.66 1.34 2.32 1 3 C0.91360131 5.40838678 0.88432236 7.78733881 0.90234375 10.1953125 C0.9037587 10.90275604 0.90517365 11.61019958 0.90663147 12.33908081 C0.912234 14.60109669 0.92478682 16.86301398 0.9375 19.125 C0.94251468 20.65755065 0.94707764 22.19010286 0.95117188 23.72265625 C0.96220423 27.48180888 0.97947048 31.24088772 1 35 C1.99 35.33 2.98 35.66 4 36 C4.6875 38.0625 4.6875 38.0625 5 40 C2.0625 39.625 2.0625 39.625 -1 39 C-2.54971773 35.90056455 -2.16291442 32.62056402 -2.16796875 29.21875 C-2.17129715 28.44946167 -2.17462555 27.68017334 -2.17805481 26.88757324 C-2.18312004 25.26017862 -2.18546326 23.6327736 -2.18530273 22.00537109 C-2.1874913 19.50991825 -2.20565654 17.01490595 -2.22460938 14.51953125 C-2.22754291 12.94010568 -2.22952797 11.36067801 -2.23046875 9.78125 C-2.23765427 9.0322644 -2.24483978 8.28327881 -2.25224304 7.51159668 C-2.2288276 2.2288276 -2.2288276 2.2288276 0 0 Z " fill="#5C72DE" transform="translate(21,199)"/>
<path d="M0 0 C0.33 0.66 0.66 1.32 1 2 C0.28470721 4.13133988 -0.52221109 6.23235468 -1.375 8.3125 C-3.66294309 13.91732149 -5.0433585 18.81722397 -5.31640625 24.86328125 C-5.35830078 25.74951172 -5.40019531 26.63574219 -5.44335938 27.54882812 C-5.50233398 28.9168457 -5.50233398 28.9168457 -5.5625 30.3125 C-5.60568359 31.24384766 -5.64886719 32.17519531 -5.69335938 33.13476562 C-5.79897225 35.42304454 -5.90107752 37.71142372 -6 40 C-6.66 40 -7.32 40 -8 40 C-8.02894547 36.54168414 -8.04678 33.08339928 -8.0625 29.625 C-8.07087891 28.64015625 -8.07925781 27.6553125 -8.08789062 26.640625 C-8.09111328 25.69960937 -8.09433594 24.75859375 -8.09765625 23.7890625 C-8.10289307 22.91975098 -8.10812988 22.05043945 -8.11352539 21.15478516 C-8 19 -8 19 -7 17 C-6.93049459 15.45976004 -6.91547643 13.91665012 -6.9375 12.375 C-6.94652344 11.55773437 -6.95554687 10.74046875 -6.96484375 9.8984375 C-6.97644531 9.27195313 -6.98804687 8.64546875 -7 8 C-6.35289063 7.72285156 -5.70578125 7.44570312 -5.0390625 7.16015625 C-4.36617188 6.77730469 -3.69328125 6.39445313 -3 6 C-2.34444881 3.47266765 -2.34444881 3.47266765 -2 1 C-1.34 0.67 -0.68 0.34 0 0 Z " fill="#5571E1" transform="translate(73,188)"/>
<path d="M0 0 C0.99 1.485 0.99 1.485 2 3 C5.41155081 4.36534851 8.82589967 5.54097561 12.32226562 6.66210938 C14.47265625 7.40234375 14.47265625 7.40234375 18 9 C18.79638672 10.96606445 18.79638672 10.96606445 19 13 C17.78515625 15.140625 17.78515625 15.140625 16.0625 17.25 C15.49660156 17.95640625 14.93070313 18.6628125 14.34765625 19.390625 C13.90292969 19.92171875 13.45820313 20.4528125 13 21 C12.34 19.68 11.68 18.36 11 17 C11.66 17 12.32 17 13 17 C13.33 16.34 13.66 15.68 14 15 C14.66 14.67 15.32 14.34 16 14 C16 13.34 16 12.68 16 12 C14.35 12.33 12.7 12.66 11 13 C10.34 11.02 9.68 9.04 9 7 C8.2575 7.04125 7.515 7.0825 6.75 7.125 C3.91241048 6.99601866 2.41226062 6.42948778 0 5 C0 3.35 0 1.7 0 0 Z " fill="#546AE7" transform="translate(151,130)"/>
<path d="M0 0 C0.99 0 1.98 0 3 0 C3 4.95 3 9.9 3 15 C7.29 15 11.58 15 16 15 C16 15.66 16 16.32 16 17 C10.72 17 5.44 17 0 17 C0 11.39 0 5.78 0 0 Z " fill="#989898" transform="translate(233,278)"/>
<path d="M0 0 C0.33 0 0.66 0 1 0 C1.37804878 12.9796748 1.37804878 12.9796748 -1 18 C-3 20 -3 20 -6.34814453 20.22705078 C-7.77640633 20.22673375 -9.20469212 20.21541361 -10.6328125 20.1953125 C-11.76056595 20.19106766 -11.76056595 20.19106766 -12.91110229 20.18673706 C-15.31589578 20.17552874 -17.72031881 20.15042352 -20.125 20.125 C-21.75390088 20.11497102 -23.38280758 20.10584503 -25.01171875 20.09765625 C-29.00795556 20.07558735 -33.00391494 20.04105351 -37 20 C-37 19.67 -37 19.34 -37 19 C-26.44 18.67 -15.88 18.34 -5 18 C-4.67 17.34 -4.34 16.68 -4 16 C-3.01 16 -2.02 16 -1 16 C-1.01160156 15.09636719 -1.02320313 14.19273437 -1.03515625 13.26171875 C-1.04417969 12.08222656 -1.05320313 10.90273438 -1.0625 9.6875 C-1.07410156 8.51574219 -1.08570313 7.34398437 -1.09765625 6.13671875 C-1 3 -1 3 0 0 Z " fill="#5C71DB" transform="translate(150,310)"/>
<path d="M0 0 C1.32 0.33 2.64 0.66 4 1 C3.979375 2.051875 3.95875 3.10375 3.9375 4.1875 C3.88031598 7.84514947 3.88031598 7.84514947 4.5625 10.75 C5 13 5 13 4 16 C3.67 15.34 3.34 14.68 3 14 C1.02 14.99 -0.96 15.98 -3 17 C-1.98974748 13.73610726 -0.95115966 10.91452941 0.75 7.9375 C2.33966784 5.0538361 2.33966784 5.0538361 1.1875 2.125 C0.795625 1.42375 0.40375 0.7225 0 0 Z " fill="#5470E9" transform="translate(51,170)"/>
<path d="M0 0 C0.33 0 0.66 0 1 0 C1.13277344 1.21816406 1.26554687 2.43632812 1.40234375 3.69140625 C1.58066967 5.3151107 1.75905843 6.93880825 1.9375 8.5625 C2.02451172 9.36236328 2.11152344 10.16222656 2.20117188 10.98632812 C2.71761452 15.67256697 3.30521531 20.33680546 4 25 C1.8647772 23.28237607 1.06913046 22.3773485 0.56762695 19.63989258 C0.54144287 18.73392334 0.51525879 17.8279541 0.48828125 16.89453125 C0.45283203 15.91162109 0.41738281 14.92871094 0.38085938 13.91601562 C0.35830078 12.89185547 0.33574219 11.86769531 0.3125 10.8125 C0.27833984 9.77673828 0.24417969 8.74097656 0.20898438 7.67382812 C0.12647358 5.1159934 0.05733428 2.55850277 0 0 Z " fill="#586DD1" transform="translate(108,304)"/>
<path d="M0 0 C1.953125 0.6484375 1.953125 0.6484375 4 2 C4.609375 4.6015625 4.609375 4.6015625 4.75 7.625 C4.80671875 8.62789062 4.8634375 9.63078125 4.921875 10.6640625 C4.94765625 11.43492187 4.9734375 12.20578125 5 13 C2.01804248 10.26246523 1.13623463 7.8956616 0 4 C-0.33 3.01 -0.66 2.02 -1 1 C-0.67 0.67 -0.34 0.34 0 0 Z " fill="#9F9F9F" transform="translate(418,225)"/>
<path d="M0 0 C3.3 0.99 6.6 1.98 10 3 C10 3.33 10 3.66 10 4 C6.37 4.66 2.74 5.32 -1 6 C-0.67 4.02 -0.34 2.04 0 0 Z " fill="#526FE6" transform="translate(108,153)"/>
<path d="M0 0 C3.59478807 3.32850747 6.22364768 6.98971331 9 11 C6.10895008 9.70401211 3.96981607 8.50703864 2 6 C0.8125 2.8125 0.8125 2.8125 0 0 Z " fill="#526CDD" transform="translate(76,253)"/>
<path d="M0 0 C2.0625 0.4375 2.0625 0.4375 4 1 C2.69593116 3.01920337 1.36176581 5.01924973 0 7 C-0.33 7 -0.66 7 -1 7 C-1.04254356 5.00045254 -1.04080783 2.99958364 -1 1 C-0.67 0.67 -0.34 0.34 0 0 Z " fill="#546FEA" transform="translate(76,179)"/>
<path d="M0 0 C1.88391785 3.26545761 2.49287967 6.28111761 3 10 C2.62875 9.0409375 2.62875 9.0409375 2.25 8.0625 C1.18437567 5.81258459 1.18437567 5.81258459 -1.125 5.25 C-1.74375 5.1675 -2.3625 5.085 -3 5 C-2.01 3.35 -1.02 1.7 0 0 Z " fill="#556FE9" transform="translate(68,234)"/>
<path d="M0 0 C0.66 0 1.32 0 2 0 C2.33 0.99 2.66 1.98 3 3 C2.67 3.66 2.34 4.32 2 5 C0.68 5 -0.64 5 -2 5 C-1.125 1.125 -1.125 1.125 0 0 Z " fill="#A0A0A0" transform="translate(279,278)"/>
<path d="" fill="#FFFFFF" transform="translate(0,0)"/>
<path d="" fill="#FFFFFF" transform="translate(0,0)"/>
<path d="" fill="#FFFFFF" transform="translate(0,0)"/>
<path d="" fill="#FFFFFF" transform="translate(0,0)"/>
<path d="" fill="#FFFFFF" transform="translate(0,0)"/>
<path d="" fill="#FFFFFF" transform="translate(0,0)"/>
<path d="" fill="#FFFFFF" transform="translate(0,0)"/>
<path d="" fill="#FFFFFF" transform="translate(0,0)"/>
<path d="" fill="#FFFFFF" transform="translate(0,0)"/>
<path d="" fill="#FFFFFF" transform="translate(0,0)"/>
<path d="" fill="#FFFFFF" transform="translate(0,0)"/>
<path d="" fill="#FFFFFF" transform="translate(0,0)"/>
<path d="" fill="#FFFFFF" transform="translate(0,0)"/>
<path d="" fill="#FFFFFF" transform="translate(0,0)"/>
<path d="" fill="#FFFFFF" transform="translate(0,0)"/>
<path d="" fill="#FFFFFF" transform="translate(0,0)"/>
<path d="" fill="#FFFFFF" transform="translate(0,0)"/>
<path d="" fill="#FFFFFF" transform="translate(0,0)"/>
<path d="" fill="#FFFFFF" transform="translate(0,0)"/>
<path d="" fill="#FFFFFF" transform="translate(0,0)"/>
<path d="" fill="#FFFFFF" transform="translate(0,0)"/>
<path d="" fill="#FFFFFF" transform="translate(0,0)"/>
<path d="" fill="#FFFFFF" transform="translate(0,0)"/>
<path d="" fill="#FFFFFF" transform="translate(0,0)"/>
<path d="" fill="#FFFFFF" transform="translate(0,0)"/>
<path d="" fill="#FFFFFF" transform="translate(0,0)"/>
<path d="" fill="#FFFFFF" transform="translate(0,0)"/>
<path d="" fill="#FFFFFF" transform="translate(0,0)"/>
<path d="" fill="#FFFFFF" transform="translate(0,0)"/>
<path d="" fill="#FFFFFF" transform="translate(0,0)"/>
<path d="" fill="#FFFFFF" transform="translate(0,0)"/>
<path d="" fill="#FFFFFF" transform="translate(0,0)"/>
<path d="" fill="#FFFFFF" transform="translate(0,0)"/>
<path d="" fill="#FFFFFF" transform="translate(0,0)"/>
<path d="" fill="#FFFFFF" transform="translate(0,0)"/>
<path d="" fill="#FFFFFF" transform="translate(0,0)"/>
<path d="" fill="#FFFFFF" transform="translate(0,0)"/>
<path d="" fill="#FFFFFF" transform="translate(0,0)"/>
<path d="" fill="#FFFFFF" transform="translate(0,0)"/>
<path d="" fill="#FFFFFF" transform="translate(0,0)"/>
<path d="" fill="#FFFFFF" transform="translate(0,0)"/>
<path d="" fill="#FFFFFF" transform="translate(0,0)"/>
<path d="" fill="#FFFFFF" transform="translate(0,0)"/>
<path d="" fill="#FFFFFF" transform="translate(0,0)"/>
<path d="" fill="#FFFFFF" transform="translate(0,0)"/>
<path d="" fill="#FFFFFF" transform="translate(0,0)"/>
<path d="" fill="#FFFFFF" transform="translate(0,0)"/>
<path d="" fill="#FFFFFF" transform="translate(0,0)"/>
<path d="" fill="#FFFFFF" transform="translate(0,0)"/>
<path d="" fill="#FFFFFF" transform="translate(0,0)"/>
<path d="" fill="#FFFFFF" transform="translate(0,0)"/>
<path d="" fill="#FFFFFF" transform="translate(0,0)"/>
<path d="" fill="#FFFFFF" transform="translate(0,0)"/>
<path d="" fill="#FFFFFF" transform="translate(0,0)"/>
<path d="" fill="#FFFFFF" transform="translate(0,0)"/>
<path d="" fill="#FFFFFF" transform="translate(0,0)"/>
<path d="" fill="#FFFFFF" transform="translate(0,0)"/>
<path d="" fill="#FFFFFF" transform="translate(0,0)"/>
<path d="" fill="#FFFFFF" transform="translate(0,0)"/>
<path d="" fill="#FFFFFF" transform="translate(0,0)"/>
<path d="" fill="#FFFFFF" transform="translate(0,0)"/>
<path d="" fill="#FFFFFF" transform="translate(0,0)"/>
<path d="" fill="#FFFFFF" transform="translate(0,0)"/>
<path d="" fill="#FFFFFF" transform="translate(0,0)"/>
<path d="" fill="#FFFFFF" transform="translate(0,0)"/>
<path d="" fill="#FFFFFF" transform="translate(0,0)"/>
<path d="" fill="#FFFFFF" transform="translate(0,0)"/>
<path d="" fill="#FFFFFF" transform="translate(0,0)"/>
<path d="" fill="#FFFFFF" transform="translate(0,0)"/>
<path d="" fill="#FFFFFF" transform="translate(0,0)"/>
<path d="" fill="#FFFFFF" transform="translate(0,0)"/>
<path d="" fill="#FFFFFF" transform="translate(0,0)"/>
<path d="" fill="#FFFFFF" transform="translate(0,0)"/>
<path d="" fill="#FFFFFF" transform="translate(0,0)"/>
<path d="" fill="#FFFFFF" transform="translate(0,0)"/>
<path d="" fill="#FFFFFF" transform="translate(0,0)"/>
<path d="" fill="#FFFFFF" transform="translate(0,0)"/>
<path d="" fill="#FFFFFF" transform="translate(0,0)"/>
<path d="" fill="#FFFFFF" transform="translate(0,0)"/>
<path d="" fill="#FFFFFF" transform="translate(0,0)"/>
<path d="" fill="#FFFFFF" transform="translate(0,0)"/>
<path d="" fill="#FFFFFF" transform="translate(0,0)"/>
<path d="" fill="#FFFFFF" transform="translate(0,0)"/>
<path d="" fill="#FFFFFF" transform="translate(0,0)"/>
</svg>
