<svg width="1200pt" height="1200pt" version="1.1" viewBox="0 0 1200 1200" xmlns="http://www.w3.org/2000/svg">
 <path d="m1117.2 437.58-14.184-8.1602 79.488-45.961 0.097657-41.496-305.85-176.61c-38.734-22.43-73.789-23.543-98.34-7.332v-0.20312l-737.4 425.81-3.2539 1.8477-1.6445 0.91016v0.10938c-22.316 14.664-35.984 43.727-36.07 83.965-0.19141 84.898 59.617 188.65 133.52 231.25l240.83 139.02c24.359 14.051 46.297 15.602 61.559 6.7422v0.085938l1.7383-1.0078 739.01-426.73 1.5117-0.82812v-0.12109c13.441-7.7031 21.742-23.473 21.828-45.949 0.21875-48.207-37.004-108.94-82.844-135.34zm-373.25-218.42 5.293-3.0469c1.0312-0.61328 1.9453-1.1172 3.0703-1.7383l16.883-9.7812c0.33594-0.20312 0.74219-0.30078 1.0312-0.50391 22.523-11.82 54.133-22.02 94.691-3.0586 1.8242 0.71875 3.5898 1.5352 5.3984 2.5547 2.0391 1.0078 4.0781 2.1367 6.2383 3.3477l270.08 155.83-79.5 45.875-35.977 20.785-79.488 45.875-35.988 20.785-475.36 274.47-154.91-89.398-35.891-20.773-115.18-66.445c-7.2227-4.1875-14.449-7.6562-21.395-10.414zm-369.45 779.99-240.84-139.01c-53.891-31.094-97.633-106.8-97.414-168.77 0.21484-61.969 44.219-87.035 98.027-55.848l79.199 45.648-79.367 45.875-0.22656 41.484 0.097656 0.085937 240.71 139.02c26.004 14.977 47.102 47.688 46.992 72.961-0.097656 25.188-21.203 33.551-47.184 18.551zm789.35-443.86c-1.1172 24.168-15.266 38.641-44.016 55.859-0.80469 0.51562-1.6445 0.91016-2.4609 1.4297-1.2227 0.71875-2.4258 1.5352-3.7578 2.2422-0.91016 0.51563-1.7539 1.0195-2.5664 1.4297l-653.61 377.41c-3.5508-46.789-39.109-102.55-82.547-127.52l-204.84-118.32 79.379-45.84 190.8 110.06 511.32-295.15 35.965-20.891 79.512-45.863 50.039 28.957c25.895 14.988 46.98 47.699 46.883 72.973 0.011718 1.0898 0.011718 2.207-0.10547 3.2266z"/>
 <path d="m371.35 631.52 79.117 47.27 203.48-114.24-81.902-48.91-35.328-21.121-80.699-48.215-203.48 114.23 83.473 49.871z"/>
 <path d="m757.7 322.8 27.445-15.398 67.258-37.75-23.098-13.812-16.477-9.8516-10.152 5.6992-24.145 13.559-32.004 17.965-250.08 140.39 39.586 23.652z"/>
 <path d="m773.81 359.64-128.04 71.867-70.152 39.395 0.97266 0.58984 35.352 21.109 3.2734 1.9531 179.17-100.58 25.98-14.594 62.93-35.34 36.48-20.484 11.82-6.6094-39.59-23.652-12.504 7.0078-3.2031 1.8242-76.547 42.961z"/>
 <path d="m847.38 410.11-28.234 15.852-164.36 92.242 39.598 23.652 155.02-87.023 33.867-19.02 80.59-45.227 36.492-20.496 10.418-5.8477-39.578-23.637-11.125 6.2266-36.453 20.484z"/>
 <path d="m1096.2 539.24c-2.0898-2.543-5.3867-6.0352-9.168-8.2578l-20.039-11.578-601.5 347.33 7.8359 10.789c4.1289 5.6406 7.9922 11.473 11.641 17.438l6.0977 10.008 589.81-340.6 5.0156-2.7852s-17.664 10.043-0.046875-0.046876c17.637-10.113 10.352-22.297 10.352-22.297z"/>
</svg>
